<?xml version="1.0" standalone="no"?><svg xmlns="http://www.w3.org/2000/svg" viewBox="0 0 1440 320"><path fill="#FBFCFF" fill-opacity="1" d="M0,160L20,160C40,160,80,160,120,149.3C160,139,200,117,240,133.3C280,149,320,203,360,197.3C400,192,440,128,480,133.3C520,139,560,213,600,234.7C640,256,680,224,720,192C760,160,800,128,840,144C880,160,920,224,960,234.7C1000,245,1040,203,1080,176C1120,149,1160,139,1200,144C1240,149,1280,171,1320,170.7C1360,171,1400,149,1420,138.7L1440,128L1440,0L1420,0C1400,0,1360,0,1320,0C1280,0,1240,0,1200,0C1160,0,1120,0,1080,0C1040,0,1000,0,960,0C920,0,880,0,840,0C800,0,760,0,720,0C680,0,640,0,600,0C560,0,520,0,480,0C440,0,400,0,360,0C320,0,280,0,240,0C200,0,160,0,120,0C80,0,40,0,20,0L0,0Z"></path></svg>