<?xml version="1.0" standalone="no"?>
<svg
  width="600"
  height="600"
  viewBox="0 0 600 600"
  xmlns="http://www.w3.org/2000/svg"
>
  <g transform="translate(300,300)">
    <path d="M122.7,-193.7C145.9,-176,142.5,-119.8,161.2,-74.8C179.9,-29.8,220.6,3.9,224.6,38C228.6,72.2,195.9,106.8,159.6,125C123.2,143.2,83.2,145,42.1,168.5C1.1,191.9,-40.9,237,-80,240.3C-119.2,243.5,-155.6,204.9,-187.6,164.5C-219.7,124.1,-247.4,81.8,-259,34.2C-270.5,-13.4,-265.8,-66.3,-236.8,-99.1C-207.7,-131.9,-154.4,-144.6,-110.9,-153.1C-67.4,-161.5,-33.7,-165.8,8,-178.3C49.7,-190.7,99.5,-211.5,122.7,-193.7Z" fill="#F1F0FF" />
  </g>
</svg>
  