<?xml version="1.0" standalone="no"?>
<svg
  width="600"
  height="600"
  viewBox="0 0 600 600"
  xmlns="http://www.w3.org/2000/svg"
>
  <g transform="translate(300,300)">
    <path d="M74.9,-102C105.8,-96.7,145.7,-90.7,148.2,-71.7C150.8,-52.6,116,-20.5,115.9,20.4C115.8,61.3,150.5,110.9,141.9,125.9C133.4,140.9,81.6,121.3,42.9,121.4C4.1,121.5,-21.6,141.4,-61,154.2C-100.3,167.1,-153.3,172.9,-159.3,148C-165.3,123.2,-124.2,67.6,-131.4,18.8C-138.5,-30,-193.9,-71.9,-198.1,-102.1C-202.4,-132.2,-155.5,-150.7,-114,-151.2C-72.4,-151.7,-36.2,-134.4,-7.1,-123.3C22,-112.2,44,-107.4,74.9,-102Z" fill="#F2F2F2" />
  </g>
</svg>
  